ply
format ascii 1.0
comment Generated by the CGAL library
element vertex 12
property double x
property double y
property double z
element face 20
property list uchar int vertex_indices
end_header
-0.0620541386306286 -0.190983012318611 0 
0.162459850311279 -0.5 0 
-0.425325393676758 -0.30901700258255 0 
-0.200811415910721 0 0 
-0.425325393676758 0.30901700258255 0 
-0.0620541386306286 0.190983012318611 0 
0 0 0.100000001490116 
0.162459850311279 0.5 0 
0.162459850311279 0.118033990263939 0 
0.162459850311279 -0.118033990263939 0 
0.525731086730957 0 0 
0 0 -0.100000001490116 
3 2 6 3 
3 3 6 4 
3 6 0 1 
3 0 6 2 
3 11 0 2 
3 11 2 3 
3 3 4 11 
3 5 11 4 
3 1 11 9 
3 0 11 1 
3 5 6 7 
3 7 6 8 
3 4 6 5 
3 11 5 7 
3 11 7 8 
3 6 1 9 
3 10 6 9 
3 8 6 10 
3 9 11 10 
3 10 11 8 
