ply
format ascii 1.0
comment Generated by the CGAL library
element vertex 12
property double x
property double y
property double z
element face 20
property list uchar int vertex_indices
property uchar red
property uchar green
property uchar blue
property uchar alpha
end_header
-0.0620541386306286 -0.190983012318611 0 
0.162459850311279 -0.5 0 
-0.425325393676758 -0.30901700258255 0 
-0.200811415910721 0 0 
-0.0620541386306286 0.190983012318611 0 
-0.425325393676758 0.30901700258255 0 
0 0 0.100000001490116 
0.162459850311279 0.5 0 
0.162459850311279 0.118033990263939 0 
0.162459850311279 -0.118033990263939 0 
0.525731086730957 0 0 
0 0 -0.100000001490116 
3 3 2 6 255 0 0 255 
3 5 3 6 255 0 0 255 
3 1 6 0 255 0 0 255 
3 2 0 6 255 0 0 255 
3 2 11 0 0 0 255 255 
3 3 11 2 0 0 255 255 
3 11 3 5 0 0 255 255 
3 5 4 11 0 0 255 255 
3 9 1 11 0 0 255 255 
3 1 0 11 0 0 255 255 
3 7 4 6 255 0 0 255 
3 8 7 6 255 0 0 255 
3 4 5 6 255 0 0 255 
3 7 11 4 0 0 255 255 
3 8 11 7 0 0 255 255 
3 9 6 1 255 0 0 255 
3 9 10 6 255 0 0 255 
3 10 8 6 255 0 0 255 
3 10 9 11 0 0 255 255 
3 8 10 11 0 0 255 255 
